<!-- kit gear + the body ring its teeth were missing (cf. lucide cog) -->
<svg xmlns="http://www.w3.org/2000/svg" viewBox="0 0 22 22"
     fill="none" stroke="#000000" stroke-width="1.6"
     stroke-linecap="round" stroke-linejoin="round">
  <path d="M8 11 a3 3 0 1 0 6 0 a3 3 0 1 0 -6 0" />
  <path d="M4.1 11 a6.9 6.9 0 1 0 13.8 0 a6.9 6.9 0 1 0 -13.8 0" />
  <path d="M11 2 v2 M11 18 v2 M2 11 h2 M18 11 h2" />
  <path d="M4.6 4.6 l1.5 1.5 M15.9 15.9 l1.5 1.5" />
  <path d="M17.4 4.6 l-1.5 1.5 M6.1 15.9 l-1.5 1.5" />
</svg>
